<svg width="48" height="48" viewBox="0 0 48 48" fill="none" xmlns="http://www.w3.org/2000/svg">
<path d="M10 47.4001C8.9 47.4001 7.958 47.0081 7.174 46.2241C6.39133 45.4414 6 44.5001 6 43.4001V15.4001C6 14.3001 6.39133 13.3581 7.174 12.5741C7.958 11.7914 8.9 11.4001 10 11.4001H27.85L14 25.2501V39.4001H28.15L42 25.5001V43.4001C42 44.5001 41.6087 45.4414 40.826 46.2241C40.042 47.0081 39.1 47.4001 38 47.4001H10ZM18 35.4001V26.9001L32.35 12.5501L40.9 20.9501L26.5 35.4001H18ZM43.75 18.1001L35.2 9.7001L37.35 7.5501C38.15 6.7501 39.1087 6.3501 40.226 6.3501C41.342 6.3501 42.2833 6.7501 43.05 7.5501L45.85 10.4001C46.6167 11.1668 47 12.1001 47 13.2001C47 14.3001 46.6167 15.2334 45.85 16.0001L43.75 18.1001Z" fill="#FFFF00"/>
</svg>
